# xmcd CD database file
#
# Track frame offsets:
#	150
#	12738
#	28485
#	45609
#	62043
#	76574
#	96279
#	108820
#	124216
#	141827
#	155963
#	168380
#	186320
#	201175
#	214949
#	229625
#	243935
#
# Disc length: 3543 seconds
#
# Revision: 1
# Processed by: cddbd v1.5.2PL0 Copyright (c) Steve Scherf et al.
# Submitted via: CDex 1.70beta2
#
DISCID=f20dd511
DTITLE=Krazy Kats - Blues an Mainstream
DYEAR=1900
DGENRE=Blues
TTITLE0=Gigolo
TTITLE1=My blue heaven
TTITLE2=Indiana
TTITLE3=I've found a new baby
TTITLE4=Chinaboy
TTITLE5=White cliffs of Dover
TTITLE6=Dream a little dream of me
TTITLE7=Exactly like you
TTITLE8=The lady is a tramp
TTITLE9=Honky tonk train blues
TTITLE10=Mona lisa
TTITLE11=St. Louis blues
TTITLE12=Memories are made of this
TTITLE13=Pennies from heaven
TTITLE14=Route 66
TTITLE15=Basin street
TTITLE16=Tin roof blues
EXTD=
EXTT0=
EXTT1=
EXTT2=
EXTT3=
EXTT4=
EXTT5=
EXTT6=
EXTT7=
EXTT8=
EXTT9=
EXTT10=
EXTT11=
EXTT12=
EXTT13=
EXTT14=
EXTT15=
EXTT16=
PLAYORDER=
